Coordinates
version=1
nRows=11
nColumns=42
inDegrees=yes

Units are S.I. units (second, meters, Newtons, ...)
If the header above contains a line with 'inDegrees', this indicates whether rotational values are in degrees (yes) or radians (no).

endheader
time	pelvis_tilt	pelvis_list	pelvis_rotation	pelvis_tx	pelvis_ty	pelvis_tz	hip_flexion_r	hip_adduction_r	hip_rotation_r	knee_angle_r	knee_adduction_r	knee_angle_r_beta	ankle_angle_r	subtalar_angle_r	mtp_angle_r	hip_flexion_l	hip_adduction_l	hip_rotation_l	knee_angle_l	knee_adduction_l	knee_angle_l_beta	ankle_angle_l	subtalar_angle_l	mtp_angle_l	lumbar_extension	lumbar_bending	lumbar_rotation	arm_flex_r	arm_add_r	arm_rot_r	elbow_flex_r	pro_sup_r	wrist_flex_r	wrist_dev_r	arm_flex_l	arm_add_l	arm_rot_l	elbow_flex_l	pro_sup_l	wrist_flex_l	wrist_dev_l
      0.40000000	     10.14807874	     -2.80856624	     10.65014089	     -1.09024535	      0.87482614	      0.19247243	     -1.97176715	     10.25998464	     -4.01467890	     16.43430674	     -0.67020098	      0.28683276	     18.68776105	    -12.56440433	     -9.61886222	     10.22970786	     -0.51854707	      0.53835003	     64.09165905	    -10.93464223	      1.11861047	     17.75848867	    -18.23638634	     -9.61886222	    -39.98562686	      7.88298781	     -2.10464986	     14.92229655	     -8.08362754	     -7.80930137	     33.19711958	     90.00000001	      0.00000000	      0.00000000	     18.08742202	     -8.25887967	     -9.80539117	     31.66130498	     90.00000001	      0.00000000	      0.00000000
      0.41000000	     10.05257349	     -2.68545062	     10.58232163	     -1.08187872	      0.87481461	      0.19331447	     -2.47017564	     10.39972090	     -4.06977769	     16.52072879	     -0.94189693	      0.28834111	     19.20117179	    -12.39715854	     -9.58785584	     11.45784317	     -0.10569361	      0.41738378	     63.10404975	    -10.99245088	      1.10137344	     18.01954037	    -18.20888402	     -9.58785584	    -39.96237189	      7.64130302	     -1.97633499	     15.55349127	     -8.25655026	     -7.69583069	     33.56898348	     90.00000001	      0.00000000	      0.00000000	     17.59302048	     -8.17280969	     -9.76492018	     31.21210434	     90.00000001	      0.00000000	      0.00000000
      0.42000000	     10.12565596	     -2.34289658	     10.34426861	     -1.07327374	      0.87524198	      0.19407839	     -3.27144344	     10.17005604	     -3.78452616	     16.58523623	     -0.87247882	      0.28946698	     20.00605462	    -12.27738307	     -9.53424949	     12.21764074	      0.54583883	      0.11026116	     61.61419573	    -11.03672408	      1.07537058	     17.98150468	    -18.19101012	     -9.53424949	    -40.12925114	      7.13476107	     -1.80516449	     16.16248279	     -8.50862673	     -7.30880553	     33.94962787	     90.00000001	      0.00000000	      0.00000000	     17.33690768	     -8.02493850	     -9.96375812	     30.21790050	     90.00000001	      0.00000000	      0.00000000
      0.43000000	     10.21028045	     -2.09531563	     10.18545121	     -1.06466560	      0.87551520	      0.19465343	     -4.11850041	     10.11341889	     -3.52280332	     16.51635190	     -0.96117669	      0.28826472	     20.50416375	    -12.14475518	     -9.46683351	     12.95607011	      1.10714865	     -0.06131308	     59.95750182	    -11.04146978	      1.04645582	     17.90206575	    -18.12702119	     -9.46683351	    -40.28585902	      6.77483471	     -1.68097302	     16.76774969	     -8.78866258	     -6.83671155	     34.39618942	     90.00000001	      0.00000000	      0.00000000	     16.98803325	     -7.84287210	    -10.47306853	     29.49550871	     90.00000001	      0.00000000	      0.00000000
      0.44000000	     10.00765867	     -2.16768197	     10.15100706	     -1.05631104	      0.87479402	      0.19531460	     -4.42074124	     10.40364401	     -3.65538198	     16.64283317	     -1.16492699	      0.29047224	     20.78643573	    -11.84661229	     -9.43984464	     14.31131996	      1.21436449	     -0.10836443	     58.57196054	    -10.82606613	      1.02227356	     17.98356709	    -17.74561899	     -9.43984464	    -40.08172163	      6.73329210	     -1.55542166	     17.37797026	     -8.94909278	     -6.75056400	     34.83209837	     90.00000001	      0.00000000	      0.00000000	     16.33480858	     -7.76980145	    -10.52388086	     29.26760269	     90.00000001	      0.00000000	      0.00000000
      0.45000000	      9.97614072	     -1.95138696	     10.01045707	     -1.04782173	      0.87446755	      0.19575540	     -5.03966960	     10.50509529	     -3.38081008	     16.74352583	     -1.61066586	      0.29222965	     21.65896544	    -11.95211334	     -9.40605888	     15.11816121	      1.76093527	      0.03069866	     56.69124625	    -10.52269731	      0.98944890	     18.06386910	    -17.91259409	     -9.40605888	    -40.07984603	      6.40182336	     -1.45889341	     18.02473850	     -9.21639216	     -6.42226654	     35.19547647	     90.00000001	      0.00000000	      0.00000000	     15.97991194	     -7.62618035	    -10.81297360	     28.53890513	     90.00000001	      0.00000000	      0.00000000
      0.46000000	     10.23190041	     -1.70007397	      9.85864596	     -1.03898892	      0.87486760	      0.19594284	     -6.33619752	     10.34361607	     -2.66722635	     16.23811853	     -1.34757675	      0.28340863	     21.89729481	    -12.15260789	     -9.28618321	     15.37516678	      2.20482807	      0.01130622	     54.33129551	    -10.16610146	      0.94825999	     17.69742034	    -17.87120908	     -9.28618321	    -40.37826294	      6.09805938	     -1.41328396	     18.60686996	     -9.58099338	     -5.40495780	     35.76347700	     90.00000001	      0.00000000	      0.00000000	     15.77033126	     -7.32007085	    -12.41952777	     27.56059007	     90.00000001	      0.00000000	      0.00000000
      0.47000000	     10.10575830	     -1.65690413	      9.76645093	     -1.03055965	      0.87407155	      0.19623502	     -6.79603573	     10.47801040	     -2.52619637	     16.35155164	     -1.49753663	      0.28538841	     22.52132623	    -12.17954585	     -9.23641476	     16.30183992	      2.41861612	      0.08629369	     52.23855880	     -9.67050988	      0.91173485	     17.70829936	    -17.68796959	     -9.23641476	    -40.23898308	      5.96004518	     -1.31350964	     19.21980586	     -9.81068406	     -5.15528452	     36.18115726	     90.00000001	      0.00000000	      0.00000000	     15.31249083	     -7.20487293	    -12.68502459	     26.98734175	     90.00000001	      0.00000000	      0.00000000
      0.48000000	     10.10365073	     -1.58239333	      9.71696190	     -1.02199751	      0.87346354	      0.19625496	     -7.56756289	     10.55318642	     -2.33598303	     16.17191216	     -1.56068838	      0.28225311	     22.97808079	    -12.07273382	     -9.17370191	     16.94943598	      2.67925358	      0.07684992	     49.86315530	     -9.28011918	      0.87027624	     17.53620287	    -17.52306170	     -9.17370191	    -40.22755422	      5.85240046	     -1.27596893	     19.81488768	    -10.08255499	     -4.69932305	     36.69378524	     90.00000001	      0.00000000	      0.00000000	     14.90806992	     -7.04174656	    -13.37506039	     26.39491168	     90.00000001	      0.00000000	      0.00000000
      0.49000000	      9.85623228	     -1.75423776	      9.75578755	     -1.01365484	      0.87199263	      0.19630152	     -7.88038637	     11.00344329	     -2.44527355	     16.17899720	     -1.96597963	      0.28237677	     23.47993305	    -11.86839375	     -9.14337436	     18.09980868	      2.63608434	     -0.15439963	     47.71735084	     -8.96815067	      0.83282488	     17.57447397	    -17.07994341	     -9.14337436	    -39.91537432	      5.99100087	     -1.19891091	     20.39608624	    -10.29598715	     -4.53432320	     37.15199176	     90.00000001	      0.00000000	      0.00000000	     14.32514182	     -6.92131571	    -13.58947038	     26.12155750	     90.00000001	      0.00000000	      0.00000000
      0.50000000	     10.06170958	     -1.57112309	      9.68249338	     -1.00480639	      0.87174407	      0.19604062	     -9.11743257	     10.87076006	     -2.14675486	     15.64783408	     -1.78948707	      0.27310623	     23.92352978	    -11.63693761	     -9.05962751	     18.20925784	      2.91563838	     -0.47097956	     44.82621759	     -8.57561063	      0.78236509	     17.28472567	    -16.76191538	     -9.05962751	    -40.11234158	      5.81268747	     -1.23044632	     20.95407163	    -10.59470533	     -3.77491161	     37.74685832	     90.00000001	      0.00000000	      0.00000000	     14.06243374	     -6.70681473	    -14.94046735	     25.36989914	     90.00000001	      0.00000000	      0.00000000
